# 3x3x4 clamp extracted from Create's large water wheel and recentered for partial rendering.
mtllib blade_clamp.mtl
o blade_clamp
v 0.406250 0.593750 0.375000
v 0.406250 0.406250 0.625000
v 0.406250 0.593750 0.625000
v 0.406250 0.406250 0.375000
v 0.593750 0.406250 0.624999
v 0.593750 0.593750 0.375000
v 0.593750 0.593750 0.624999
v 0.593750 0.406250 0.375000
vt 0.187500 0.687500
vt 0.000000 0.437500
vt 0.187500 0.437500
vt 0.187500 0.687500
vt 0.000000 0.437500
vt 0.187500 0.437500
vt 0.187500 0.437500
vt 0.000000 0.687500
vt 0.000000 0.437500
vt 0.187500 0.437500
vt 0.000000 0.687500
vt 0.000000 0.437500
vt 0.000000 0.875000
vt 0.187500 0.687500
vt 0.187500 0.875000
vt 0.187500 0.250000
vt 0.000000 0.250000
vt 0.000000 0.687500
vt 0.000000 0.687500
vt 0.187500 0.687500
vn -1.000000 0.000000 0.000000
vn 0.000000 -1.000000 0.000000
vn 1.000000 0.000000 0.000000
vn 0.000000 1.000000 0.000000
vn 0.000000 0.000000 -1.000000
vn 0.000000 0.000000 1.000000
usemtl waterwheel_metal
s off
f 1/1/1 2/2/1 3/3/1
f 4/4/2 5/5/2 2/6/2
f 5/7/3 6/8/3 7/9/3
f 7/10/4 1/11/4 3/12/4
f 4/13/5 6/14/5 8/15/5
f 3/16/6 5/5/6 7/17/6
f 1/1/1 4/18/1 2/2/1
f 4/4/2 8/19/2 5/5/2
f 5/7/3 8/20/3 6/8/3
f 7/10/4 6/14/4 1/11/4
f 4/13/5 1/11/5 6/14/5
f 3/16/6 2/6/6 5/5/6
